#!OML:ASF I:\Actors\actors\Patient Classification 2\Patient 1\Session 1\actor1.ASF
:FULLY-SPECIFIED
:DEGREES
368
root -0.545628 18.6937 5.8748 2.65841 -3.0299 -1.65046
lowerback 1.77468 1.53246 -2.33425
upperback -2.21557 1.99511 0.892757
thorax -3.38667 1.06477 2.13175
lowerneck -16.0448 -1.86625 -2.09728
upperneck 33.7401 -2.75278 1.81086
head 14.3075 -1.20459 0.642063
rclavicle 1.55238e-014 1.68967e-015
rhumerus -30.8513 53.9775 -81.6465
rradius 108.241
rwrist 10.646
rhand -24.5091 -42.0562
rfingers 7.12502
rthumb 1.98566 -72.0267
lclavicle 1.55238e-014 1.68967e-015
lhumerus -44.7758 -29.0011 103.291
lradius 108.12
lwrist 30.4321
lhand -14.3624 -30.709
lfingers 7.12502
lthumb 11.7797 -1.0603
rfemur 0 0 0
rtibia 0
rfoot 0 0
rtoes 0
lfemur -4.0008 -7.58877 -13.3234
ltibia 21.1761
lfoot -24.5787 15.85
ltoes -54.0365
369
root -0.544906 18.6934 5.87569 2.656 -3.02784 -1.64905
lowerback 1.74458 1.51429 -2.36455
upperback -2.20393 1.9706 0.894751
thorax -3.35743 1.05286 2.15302
lowerneck -16.0281 -1.8691 -2.10467
upperneck 33.6784 -2.76142 1.83161
head 14.2766 -1.20692 0.650171
rclavicle -4.53478e-015 6.4605e-015
rhumerus -31.3353 53.9159 -82.4088
rradius 108.374
rwrist 10.1888
rhand -24.4052 -42.341
rfingers 7.12502
rthumb 2.08601 -72.3105
lclavicle -4.53478e-015 6.4605e-015
lhumerus -44.6701 -28.9849 103.252
lradius 108.099
lwrist 30.5993
lhand -14.188 -30.7188
lfingers 7.12502
lthumb 11.9478 -1.07974
rfemur 0 0 0
rtibia 0
rfoot 0 0
rtoes 0
lfemur -3.99891 -7.59533 -13.3297
ltibia 21.18
lfoot -24.5794 15.8593
ltoes -54.056
370
root -0.543764 18.6947 5.87637 2.71409 -3.02583 -1.63575
lowerback 1.64955 1.49038 -2.42686
upperback -2.21061 1.93923 0.911762
thorax -3.31179 1.03856 2.20948
lowerneck -15.9978 -1.86392 -2.13041
upperneck 33.6087 -2.74066 1.82072
head 14.2379 -1.20347 0.653653
rclavicle -1.05915e-014 -3.97569e-015
rhumerus -31.7484 53.8576 -83.094
rradius 108.492
rwrist 9.58367
rhand -24.2653 -42.5181
rfingers 7.12502
rthumb 2.22117 -72.4863
lclavicle -1.05915e-014 -3.97569e-015
lhumerus -44.5927 -28.9367 103.26
lradius 108.05
lwrist 30.4154
lhand -14.2468 -30.7439
lfingers 7.12502
lthumb 11.8911 -1.10156
rfemur 0 0 0
rtibia 0
rfoot 0 0
rtoes 0
lfemur -4.07029 -7.64766 -13.3494
ltibia 21.1897
lfoot -24.5747 15.9259
ltoes -54.1093
371
root -0.541646 18.6958 5.87801 2.80637 -3.01983 -1.62998
lowerback 1.50423 1.47087 -2.4662
upperback -2.21678 1.91557 0.923959
thorax -3.23658 1.02709 2.24899
lowerneck -16.0398 -1.8591 -2.14098
upperneck 33.6186 -2.72361 1.80362
head 14.2513 -1.19962 0.651091
rclavicle -3.27839e-015 -5.26779e-015
rhumerus -32.2144 53.7488 -83.8002
rradius 108.604
rwrist 8.79596
rhand -23.7825 -42.8042
rfingers 7.12502
rthumb 2.68742 -72.7671
lclavicle -3.27839e-015 -5.26779e-015
lhumerus -44.5242 -28.8822 103.254
lradius 107.987
lwrist 30.0671
lhand -14.1826 -30.8473
lfingers 7.12502
lthumb 11.953 -1.20854
rfemur 0 0 0
rtibia 0
rfoot 0 0
rtoes 0
lfemur -4.17694 -7.69131 -13.3605
ltibia 21.2007
lfoot -24.5689 15.9793
ltoes -54.1379
372
root -0.540377 18.6958 5.88019 2.83874 -3.01581 -1.62655
lowerback 1.40909 1.46116 -2.49152
upperback -2.19304 1.90417 0.924393
thorax -3.15857 1.02078 2.267
lowerneck -16.1087 -1.86834 -2.14632
upperneck 33.6356 -2.73763 1.81095
head 14.2751 -1.20483 0.652127
rclavicle -8.34585e-015 -1.23246e-014
rhumerus -32.6152 53.626 -84.4349
rradius 108.731
rwrist 7.87969
rhand -23.2113 -43.2044
rfingers 7.12502
rthumb 3.23907 -73.1595
lclavicle -8.34585e-015 -1.23246e-014
lhumerus -44.5013 -28.8893 103.244
lradius 107.943
lwrist 29.8902
lhand -14.0652 -30.9831
lfingers 7.12502
lthumb 12.0662 -1.35094
rfemur 0 0 0
rtibia 0
rfoot 0 0
rtoes 0
lfemur -4.20923 -7.71412 -13.3714
ltibia 21.2071
lfoot -24.5945 15.9957
ltoes -54.1123
373
root -0.539933 18.696 5.88189 2.82434 -3.03385 -1.60843
lowerback 1.3773 1.46435 -2.527
upperback -2.16985 1.90806 0.917528
thorax -3.11791 1.02267 2.28082
lowerneck -16.134 -1.88309 -2.18135
upperneck 33.6198 -2.7615 1.84998
head 14.2758 -1.21409 0.669804
rclavicle -2.11224e-014 -9.93923e-016
rhumerus -32.9942 53.5015 -85.0439
rradius 108.841
rwrist 7.18657
rhand -23.1129 -43.5796
rfingers 7.12502
rthumb 3.33404 -73.5332
lclavicle -2.11224e-014 -9.93923e-016
lhumerus -44.579 -28.9549 103.29
lradius 107.897
lwrist 29.7773
lhand -14.1326 -31.1555
lfingers 7.12502
lthumb 12.0012 -1.51962
rfemur 0 0 0
rtibia 0
rfoot 0 0
rtoes 0
lfemur -4.18274 -7.67934 -13.3995
ltibia 21.2112
lfoot -24.5973 16.0109
ltoes -54.1625
